<svg version="1.1" id="Layer_1" xmlns="http://www.w3.org/2000/svg" xmlns:xlink="http://www.w3.org/1999/xlink" x="0px" y="0px"
	 width="100%" viewBox="0 0 128 128" enable-background="new 0 0 128 128" xml:space="preserve">
<path fill="#010101" opacity="1.000000" stroke="none" 
	d="
M58.000000,129.000000 
	C38.666668,129.000000 19.833334,129.000000 1.000000,129.000000 
	C1.000000,86.333336 1.000000,43.666668 1.000000,1.000000 
	C43.666668,1.000000 86.333336,1.000000 129.000000,1.000000 
	C129.000000,43.666668 129.000000,86.333336 129.000000,129.000000 
	C105.500000,129.000000 82.000000,129.000000 58.000000,129.000000 
M67.850349,37.024895 
	C67.818916,46.155373 67.833366,55.286346 67.734489,64.416092 
	C67.692223,68.319267 69.353912,70.294891 73.357689,70.258369 
	C79.334267,70.203842 85.312042,70.204819 91.288666,70.256439 
	C95.240280,70.290558 97.039619,68.406166 97.014359,64.477081 
	C96.959930,56.009895 96.946289,47.541656 97.020401,39.074768 
	C97.056564,34.943245 95.244545,32.931091 91.045189,32.983608 
	C85.235039,33.056267 79.405594,32.745831 73.622200,33.145889 
	C71.689972,33.279549 69.873764,35.090397 67.850349,37.024895 
M60.421173,96.009491 
	C61.007153,94.873123 62.084400,93.744164 62.101669,92.599220 
	C62.244366,83.138168 62.387779,73.666008 61.997574,64.219246 
	C61.934422,62.690308 59.321613,60.116348 57.742756,60.000778 
	C51.136597,59.517200 44.474838,59.735012 37.834503,59.801315 
	C34.586926,59.833740 33.025391,61.737576 33.015163,64.893044 
	C32.986111,73.859207 32.772739,82.836601 33.200333,91.782410 
	C33.285755,93.569565 35.818520,96.643951 37.342892,96.720078 
	C44.760738,97.090485 52.219379,96.643768 60.421173,96.009491 
M53.355755,54.249142 
	C62.052116,54.226467 62.245689,54.030136 62.248161,45.166828 
	C62.248814,42.834435 62.256386,40.501827 62.228992,38.169693 
	C62.187977,34.677940 60.344414,33.007160 56.909855,33.004025 
	C50.745552,32.998398 44.581192,32.988178 38.416950,33.008160 
	C34.700516,33.020203 32.973053,34.981476 32.997276,38.637497 
	C33.019356,41.969410 33.037498,45.302067 32.992699,48.633522 
	C32.938507,52.663372 35.013531,54.323071 38.893169,54.263279 
	C43.390369,54.193981 47.889477,54.248421 53.355755,54.249142 
M96.999077,91.070374 
	C96.999229,88.582855 97.003471,86.095337 96.998741,83.607826 
	C96.985077,76.414520 96.323387,75.771339 88.916565,75.751831 
	C86.760735,75.746155 84.604881,75.749031 82.449036,75.751144 
	C65.914688,75.767349 67.852844,74.052185 67.747932,91.376175 
	C67.723808,95.359474 69.699684,97.064636 73.590729,97.017174 
	C79.394058,96.946381 85.199394,96.952850 91.002892,97.016319 
	C94.518547,97.054764 96.748703,95.733696 96.999077,91.070374 
z"/>
<path fill="#FEFEFE" opacity="1.000000" stroke="none" 
	d="
M67.927429,36.579731 
	C69.873764,35.090397 71.689972,33.279549 73.622200,33.145889 
	C79.405594,32.745831 85.235039,33.056267 91.045189,32.983608 
	C95.244545,32.931091 97.056564,34.943245 97.020401,39.074768 
	C96.946289,47.541656 96.959930,56.009895 97.014359,64.477081 
	C97.039619,68.406166 95.240280,70.290558 91.288666,70.256439 
	C85.312042,70.204819 79.334267,70.203842 73.357689,70.258369 
	C69.353912,70.294891 67.692223,68.319267 67.734489,64.416092 
	C67.833366,55.286346 67.818916,46.155373 67.927429,36.579731 
z"/>
<path fill="#FEFEFE" opacity="1.000000" stroke="none" 
	d="
M60.042377,96.247902 
	C52.219379,96.643768 44.760738,97.090485 37.342892,96.720078 
	C35.818520,96.643951 33.285755,93.569565 33.200333,91.782410 
	C32.772739,82.836601 32.986111,73.859207 33.015163,64.893044 
	C33.025391,61.737576 34.586926,59.833740 37.834503,59.801315 
	C44.474838,59.735012 51.136597,59.517200 57.742756,60.000778 
	C59.321613,60.116348 61.934422,62.690308 61.997574,64.219246 
	C62.387779,73.666008 62.244366,83.138168 62.101669,92.599220 
	C62.084400,93.744164 61.007153,94.873123 60.042377,96.247902 
z"/>
<path fill="#FEFEFE" opacity="1.000000" stroke="none" 
	d="
M52.871758,54.249142 
	C47.889477,54.248421 43.390369,54.193981 38.893169,54.263279 
	C35.013531,54.323071 32.938507,52.663372 32.992699,48.633522 
	C33.037498,45.302067 33.019356,41.969410 32.997276,38.637497 
	C32.973053,34.981476 34.700516,33.020203 38.416950,33.008160 
	C44.581192,32.988178 50.745552,32.998398 56.909855,33.004025 
	C60.344414,33.007160 62.187977,34.677940 62.228992,38.169693 
	C62.256386,40.501827 62.248814,42.834435 62.248161,45.166828 
	C62.245689,54.030136 62.052116,54.226467 52.871758,54.249142 
z"/>
<path fill="#FEFEFE" opacity="1.000000" stroke="none" 
	d="
M96.996201,91.520348 
	C96.748703,95.733696 94.518547,97.054764 91.002892,97.016319 
	C85.199394,96.952850 79.394058,96.946381 73.590729,97.017174 
	C69.699684,97.064636 67.723808,95.359474 67.747932,91.376175 
	C67.852844,74.052185 65.914688,75.767349 82.449036,75.751144 
	C84.604881,75.749031 86.760735,75.746155 88.916565,75.751831 
	C96.323387,75.771339 96.985077,76.414520 96.998741,83.607826 
	C97.003471,86.095337 96.999229,88.582855 96.996201,91.520348 
z"/>
</svg>